Coordinates
version=1
nRows=7
nColumns=40
inDegrees=yes

Units are S.I. units (second, meters, Newtons, ...)
Angles are in degrees.

endheader
time	pelvis_tilt	pelvis_list	pelvis_rotation	pelvis_tx	pelvis_ty	pelvis_tz	hip_flexion_r	hip_adduction_r	hip_rotation_r	knee_angle_r	knee_angle_r_beta	ankle_angle_r	subtalar_angle_r	mtp_angle_r	hip_flexion_l	hip_adduction_l	hip_rotation_l	knee_angle_l	knee_angle_l_beta	ankle_angle_l	subtalar_angle_l	mtp_angle_l	lumbar_extension	lumbar_bending	lumbar_rotation	arm_flex_r	arm_add_r	arm_rot_r	elbow_flex_r	pro_sup_r	wrist_flex_r	wrist_dev_r	arm_flex_l	arm_add_l	arm_rot_l	elbow_flex_l	pro_sup_l	wrist_flex_l	wrist_dev_l
     46.20000000	     -1.17956320	     -4.83587748	      4.59912024	      1.04810056	      0.93646216	      0.51883309	      8.32540377	      2.84524458	    -19.98534740	     15.65135150	     15.65135150	     10.23842574	      3.19864688	     -3.07454610	     28.36433756	    -15.02736328	     -0.73343971	     56.52365876	     56.52365876	     10.64575506	    -17.74057591	     11.29967881	    -10.24501701	      5.73053316	      2.51776573	     20.04412145	    -21.40052909	     -2.33027154	     72.87535630	     45.49870460	      0.00000000	      0.00000000	      1.84683690	     -8.41814089	     -6.80319966	     28.92390284	     45.83788764	      0.00000000	      0.00000000
     46.21357143	     -1.50965486	     -4.70776606	      4.74306702	      1.04597726	      0.93637059	      0.51899492	      8.19105006	      2.80454928	    -19.98193484	     15.20933993	     15.20933993	     10.33517074	      3.15654425	     -3.06586159	     29.31607923	    -14.71427810	     -0.89082045	     53.50766070	     53.50766070	     10.74332692	    -17.35913786	     11.46314216	    -10.11573560	      5.69730936	      2.90113802	     21.55816508	    -21.78998755	     -2.62349417	     73.57192106	     45.49160026	      0.00000000	      0.00000000	      1.17046507	     -8.09745687	     -6.76650490	     28.69108460	     45.82284999	      0.00000000	      0.00000000
     46.22714286	     -1.64116811	     -4.56537099	      4.92981207	      1.04405981	      0.93662993	      0.51910167	      7.67481983	      2.82023720	    -20.02123433	     14.45772897	     14.45772897	     10.31770072	      3.22245205	     -3.08677913	     29.72228199	    -14.27620120	     -0.95405844	     49.96474824	     49.96474824	     10.48956179	    -17.19683303	     11.30081163	    -10.23441063	      5.65826054	      2.88291878	     23.17713107	    -21.71740785	     -2.82074680	     74.63546391	     45.46842804	      0.00000000	      0.00000000	      0.35202851	     -7.94139942	     -6.72035229	     28.37054319	     45.80776407	      0.00000000	      0.00000000
     46.24071429	     -1.94765061	     -4.47952633	      5.07593352	      1.04203883	      0.93633973	      0.51912986	      7.50764299	      2.81855995	    -20.04594044	     13.99977337	     13.99977337	     10.41057289	      3.23545452	     -3.19163763	     30.23165171	    -13.91725261	     -1.10102838	     46.33875216	     46.33875216	     10.35656485	    -16.55549556	     11.33535263	    -10.11031948	      5.70630477	      3.19069665	     24.74088762	    -22.02443039	     -3.05738185	     75.35795773	     45.45864905	      0.00000000	      0.00000000	     -0.35014430	     -7.67282535	     -6.67808271	     28.16840655	     45.79169136	      0.00000000	      0.00000000
     46.25428571	     -2.03405951	     -4.43974549	      5.25379186	      1.04019593	      0.93629323	      0.51911116	      6.93650889	      2.94975115	    -20.13905868	     13.17526103	     13.17526103	      9.96528698	      3.23652970	     -4.57282201	     30.11464586	    -13.57802054	     -1.24813326	     42.02623297	     42.02623297	      8.36375977	    -16.44751749	      7.21582777	    -10.28093549	      5.77780204	      2.99869929	     26.58492491	    -21.94521987	     -2.77246827	     76.07829473	     45.42482417	      0.00000000	      0.00000000	     -1.43539797	     -7.54815951	     -6.56486650	     28.42844108	     45.79240222	      0.00000000	      0.00000000
     46.26785714	     -2.28700073	     -4.34073150	      5.39557427	      1.03821295	      0.93587470	      0.51891058	      6.76883601	      2.91191241	    -20.07556464	     12.82361701	     12.82361701	     10.11052614	      3.15194373	     -4.62775127	     30.29354511	    -13.11652006	     -1.32664378	     38.15248611	     38.15248611	      8.21263559	    -15.37193531	      7.75412762	    -10.23979088	      5.79864301	      3.26798282	     28.02594097	    -22.14168909	     -2.99090855	     76.75430948	     45.41536597	      0.00000000	      0.00000000	     -2.03958318	     -7.33878611	     -6.52110207	     28.19503848	     45.77877387	      0.00000000	      0.00000000
     46.28142857	     -2.51721923	     -4.31576708	      5.52845936	      1.03624577	      0.93532507	      0.51861091	      6.58951202	      2.94881937	    -20.09564990	     12.48016173	     12.48016173	     10.26341036	      3.07089295	     -4.75988629	     30.38950040	    -12.70266029	     -1.31889501	     34.30846035	     34.30846035	      8.09740515	    -14.12950297	      8.20246528	    -10.22320592	      5.85449191	      3.43791736	     29.46620491	    -22.26535133	     -3.17665902	     77.46923499	     45.40407582	      0.00000000	      0.00000000	     -2.59527482	     -7.13050812	     -6.48138965	     27.95305280	     45.76671608	      0.00000000	      0.00000000
